<svg width="966" height="956" viewBox="0 0 966 956" fill="none" xmlns="http://www.w3.org/2000/svg">
<path d="M965.861 392.002C965.861 572.148 665.762 956 476.959 956C288.156 956 0 737.56 0 557.414C0 377.268 171.716 80 360.519 80C549.322 80 965.861 211.855 965.861 392.002Z" fill="#F7F7F7"/>
<rect x="247.273" y="196.49" width="621.754" height="531.256" rx="83.7943" fill="#E1E1E1"/>
<rect x="680.49" y="168" width="16.7589" height="326.798" fill="white"/>
<rect x="424.917" y="168" width="16.7589" height="593.264" fill="white"/>
<rect x="228" y="339.778" width="16.7589" height="656.11" transform="rotate(-90 228 339.778)" fill="white"/>
<rect x="425.755" y="494.798" width="16.7589" height="478.466" transform="rotate(-90 425.755 494.798)" fill="white"/>
<rect x="794" y="369" width="19" height="65" fill="#2DA733"/>
<circle cx="804" cy="342" r="50" fill="#2DA733"/>
<rect x="605" y="528" width="19" height="65" fill="#2DA733"/>
<path d="M615 434L658.301 560H571.699L615 434Z" fill="#2DA733"/>
<path d="M247 357H323C350.614 357 373 379.386 373 407V409.5C373 437.114 350.614 459.5 323 459.5H247V357Z" fill="#00C0F4"/>
<rect x="126" y="579" width="287.251" height="364.016" fill="#6B93CA"/>
<rect x="413.251" y="711.895" width="426.749" height="231.121" fill="#6B93CA"/>
<path d="M412.426 711.895H725.265V942.191H668.987V850.568L540.706 872.265L412.426 850.568V711.895Z" fill="#17255A"/>
<rect x="412.426" y="848.917" width="264.139" height="94.0994" fill="white"/>
<rect x="444.617" y="881.934" width="37.9699" height="61.0821" fill="#696766"/>
<rect x="499.921" y="881.934" width="37.9699" height="61.0821" fill="#696766"/>
<rect x="555.225" y="881.934" width="37.9699" height="61.0821" fill="#696766"/>
<rect x="610.53" y="881.934" width="37.9699" height="61.0821" fill="#696766"/>
<path d="M181.514 735.818C176.533 735.818 172.545 734.882 169.549 733.009C166.553 731.099 165.055 728.197 165.055 724.302C165.055 722.242 165.41 720.669 166.122 719.583C166.833 718.497 167.882 717.954 169.268 717.954C170.279 717.954 171.103 718.216 171.74 718.741C172.376 719.265 172.695 719.939 172.695 720.763C172.695 721.512 172.638 722.167 172.526 722.729C172.526 722.879 172.489 723.141 172.414 723.516C172.376 723.89 172.358 724.283 172.358 724.695C172.358 726.381 173.2 727.635 174.885 728.459C176.608 729.283 179.005 729.695 182.076 729.695C185.259 729.695 187.75 729.133 189.548 728.01C191.345 726.849 192.244 725.238 192.244 723.179C192.244 721.905 191.832 720.819 191.008 719.92C190.184 718.984 189.154 718.216 187.918 717.617C186.683 716.98 184.941 716.213 182.694 715.314C179.81 714.19 177.451 713.123 175.616 712.112C173.818 711.101 172.264 709.734 170.953 708.011C169.68 706.251 169.043 704.078 169.043 701.494C169.043 698.798 169.755 696.401 171.178 694.304C172.638 692.206 174.717 690.577 177.413 689.416C180.147 688.255 183.349 687.675 187.02 687.675C189.754 687.675 192.263 688.087 194.547 688.911C196.832 689.697 198.648 690.914 199.996 692.562C201.382 694.21 202.075 696.232 202.075 698.629C202.075 700.989 201.719 702.768 201.008 703.966C200.296 705.165 199.247 705.764 197.862 705.764C196.888 705.764 196.064 705.464 195.39 704.865C194.753 704.266 194.435 703.554 194.435 702.73C194.435 702.019 194.491 701.363 194.604 700.764C194.716 699.64 194.772 698.929 194.772 698.629C194.772 697.056 194.004 695.858 192.469 695.034C190.933 694.21 189.023 693.798 186.739 693.798C183.518 693.798 181.046 694.397 179.323 695.596C177.638 696.757 176.795 698.405 176.795 700.539C176.795 701.962 177.226 703.18 178.088 704.191C178.986 705.202 180.091 706.045 181.402 706.719C182.713 707.393 184.548 708.198 186.907 709.134C189.754 710.295 192.038 711.344 193.761 712.28C195.484 713.217 196.944 714.49 198.143 716.1C199.379 717.711 199.996 719.696 199.996 722.055C199.996 726.474 198.311 729.882 194.941 732.279C191.607 734.639 187.132 735.818 181.514 735.818ZM215.521 735.65C211.851 735.65 208.986 734.62 206.926 732.56C204.904 730.463 203.893 727.71 203.893 724.302C203.893 721.269 204.492 718.609 205.691 716.325C206.889 714.04 208.443 712.28 210.353 711.044C212.263 709.808 214.267 709.191 216.364 709.191C218.424 709.191 220.016 709.808 221.139 711.044C222.3 712.243 222.881 713.797 222.881 715.707C222.881 717.28 222.525 718.609 221.813 719.696C221.139 720.782 220.24 721.325 219.117 721.325C218.405 721.325 217.825 721.156 217.375 720.819C216.963 720.482 216.757 720.014 216.757 719.415C216.757 719.153 216.795 718.853 216.87 718.516C216.945 718.179 217.001 717.935 217.038 717.786C217.225 717.224 217.319 716.699 217.319 716.213C217.319 715.726 217.188 715.351 216.926 715.089C216.701 714.827 216.364 714.696 215.915 714.696C215.053 714.696 214.248 715.089 213.499 715.876C212.75 716.625 212.151 717.654 211.701 718.965C211.252 720.276 211.027 721.718 211.027 723.291C211.027 727.635 212.919 729.807 216.701 729.807C218.237 729.807 219.885 729.302 221.645 728.291C223.442 727.242 225.203 725.688 226.925 723.628C227.375 723.104 227.88 722.841 228.442 722.841C228.929 722.841 229.303 723.066 229.566 723.516C229.865 723.965 230.015 724.583 230.015 725.369C230.015 726.793 229.659 727.954 228.948 728.852C227.187 731.025 225.071 732.71 222.6 733.908C220.165 735.069 217.806 735.65 215.521 735.65ZM229.462 735.65C228.039 735.65 227.028 734.901 226.429 733.403C225.867 731.905 225.586 729.508 225.586 726.212C225.586 721.343 226.279 716.718 227.665 712.336C228.002 711.25 228.545 710.464 229.294 709.977C230.08 709.453 231.167 709.191 232.552 709.191C233.301 709.191 233.826 709.284 234.125 709.471C234.425 709.659 234.575 710.014 234.575 710.539C234.575 711.138 234.294 712.486 233.732 714.584C233.357 716.082 233.058 717.392 232.833 718.516C232.608 719.639 232.421 721.025 232.271 722.673C233.507 719.452 234.893 716.831 236.428 714.808C237.964 712.786 239.462 711.344 240.923 710.483C242.421 709.621 243.788 709.191 245.023 709.191C247.458 709.191 248.675 710.408 248.675 712.842C248.675 713.329 248.506 714.509 248.169 716.381C247.87 717.879 247.72 718.815 247.72 719.19C247.72 720.501 248.188 721.156 249.124 721.156C250.173 721.156 251.521 720.332 253.169 718.684C253.656 718.198 254.162 717.954 254.686 717.954C255.173 717.954 255.547 718.179 255.809 718.628C256.109 719.04 256.259 719.602 256.259 720.314C256.259 721.699 255.884 722.785 255.135 723.572C254.087 724.658 252.851 725.594 251.428 726.381C250.042 727.13 248.563 727.504 246.99 727.504C245.005 727.504 243.488 726.999 242.439 725.987C241.428 724.976 240.923 723.609 240.923 721.886C240.923 721.325 240.979 720.763 241.091 720.201C241.166 719.452 241.203 718.947 241.203 718.684C241.203 718.085 240.997 717.786 240.585 717.786C240.024 717.786 239.275 718.422 238.338 719.696C237.44 720.931 236.541 722.579 235.642 724.639C234.743 726.699 234.013 728.871 233.451 731.156C233.039 732.916 232.552 734.114 231.99 734.751C231.466 735.35 230.623 735.65 229.462 735.65ZM257.948 735.65C255.627 735.65 253.773 734.807 252.387 733.122C251.001 731.437 250.308 729.227 250.308 726.493C250.308 723.497 251.001 720.669 252.387 718.01C253.773 715.314 255.608 713.16 257.892 711.55C260.214 709.902 262.667 709.078 265.251 709.078C266.075 709.078 266.618 709.247 266.881 709.584C267.18 709.883 267.424 710.445 267.611 711.269C268.397 711.119 269.221 711.044 270.083 711.044C271.918 711.044 272.835 711.7 272.835 713.011C272.835 713.797 272.554 715.67 271.993 718.628C271.131 722.935 270.701 725.931 270.701 727.617C270.701 728.178 270.832 728.628 271.094 728.965C271.393 729.302 271.768 729.47 272.217 729.47C272.929 729.47 273.79 729.021 274.802 728.122C275.813 727.186 277.18 725.688 278.902 723.628C279.352 723.104 279.857 722.841 280.419 722.841C280.906 722.841 281.281 723.066 281.543 723.516C281.842 723.965 281.992 724.583 281.992 725.369C281.992 726.867 281.636 728.028 280.925 728.852C279.389 730.762 277.76 732.373 276.037 733.684C274.315 734.994 272.648 735.65 271.038 735.65C269.802 735.65 268.66 735.238 267.611 734.414C266.6 733.553 265.832 732.392 265.308 730.931C263.36 734.077 260.907 735.65 257.948 735.65ZM259.971 729.976C260.795 729.976 261.581 729.489 262.33 728.515C263.079 727.542 263.622 726.25 263.959 724.639L266.038 714.303C264.465 714.34 263.004 714.939 261.656 716.1C260.345 717.224 259.297 718.722 258.51 720.594C257.724 722.467 257.331 724.452 257.331 726.549C257.331 727.71 257.555 728.572 258.005 729.133C258.492 729.695 259.147 729.976 259.971 729.976ZM307.425 722.841C307.912 722.841 308.286 723.066 308.548 723.516C308.848 723.965 308.998 724.583 308.998 725.369C308.998 726.867 308.642 728.028 307.93 728.852C306.32 730.837 304.579 732.466 302.706 733.74C300.871 735.013 298.774 735.65 296.414 735.65C294.429 735.65 292.819 734.938 291.583 733.515C289.448 734.901 287.22 735.612 284.898 735.65C284.411 742.878 283.306 748.907 281.584 753.739C279.861 758.607 277.333 761.042 274 761.042C271.977 761.042 270.479 760.311 269.506 758.851C268.532 757.39 268.045 755.368 268.045 752.784C268.045 749.113 268.888 744.825 270.573 739.919C272.258 735.051 274.861 729.676 278.381 723.796C278.381 718.329 278.344 714.527 278.269 712.393C278.232 711.307 278.662 710.445 279.561 709.808C280.46 709.172 281.584 708.853 282.932 708.853C283.718 708.853 284.28 709.022 284.617 709.359C284.992 709.659 285.198 710.277 285.235 711.213C285.235 712.149 285.254 712.842 285.291 713.291C286.49 711.793 287.669 710.726 288.83 710.089C289.991 709.415 291.227 709.078 292.538 709.078C294.635 709.078 296.339 709.921 297.65 711.606C298.998 713.291 299.672 715.501 299.672 718.235C299.672 720.22 299.354 722.149 298.717 724.021C298.081 725.894 297.201 727.598 296.077 729.133C296.864 729.358 297.519 729.47 298.043 729.47C299.279 729.47 300.459 729.021 301.582 728.122C302.706 727.223 304.148 725.725 305.908 723.628C306.357 723.104 306.863 722.841 307.425 722.841ZM285.179 730.257C286.527 729.957 287.763 729.227 288.887 728.066C290.048 726.867 290.965 725.407 291.639 723.684C292.313 721.924 292.65 720.089 292.65 718.179C292.65 717.055 292.426 716.213 291.976 715.651C291.527 715.052 290.928 714.752 290.179 714.752C288.83 714.752 287.201 716.175 285.291 719.021C285.254 720.669 285.235 723.085 285.235 726.268C285.235 727.991 285.216 729.321 285.179 730.257ZM274.449 755.536C275.46 755.536 276.303 753.327 276.977 748.907C277.651 744.526 278.082 739.058 278.269 732.504C276.659 736.249 275.385 739.826 274.449 743.234C273.513 746.642 273.045 749.507 273.045 751.829C273.045 753.027 273.194 753.945 273.494 754.581C273.756 755.218 274.075 755.536 274.449 755.536ZM315.202 735.65C311.532 735.65 308.667 734.62 306.607 732.56C304.585 730.463 303.574 727.71 303.574 724.302C303.574 721.269 304.173 718.609 305.371 716.325C306.57 714.04 308.124 712.28 310.034 711.044C311.944 709.808 313.948 709.191 316.045 709.191C318.105 709.191 319.696 709.808 320.82 711.044C321.981 712.243 322.561 713.797 322.561 715.707C322.561 717.28 322.206 718.609 321.494 719.696C320.82 720.782 319.921 721.325 318.798 721.325C318.086 721.325 317.506 721.156 317.056 720.819C316.644 720.482 316.438 720.014 316.438 719.415C316.438 719.153 316.476 718.853 316.551 718.516C316.625 718.179 316.682 717.935 316.719 717.786C316.906 717.224 317 716.699 317 716.213C317 715.726 316.869 715.351 316.607 715.089C316.382 714.827 316.045 714.696 315.595 714.696C314.734 714.696 313.929 715.089 313.18 715.876C312.431 716.625 311.832 717.654 311.382 718.965C310.933 720.276 310.708 721.718 310.708 723.291C310.708 727.635 312.599 729.807 316.382 729.807C317.917 729.807 319.565 729.302 321.326 728.291C323.123 727.242 324.883 725.688 326.606 723.628C327.056 723.104 327.561 722.841 328.123 722.841C328.61 722.841 328.984 723.066 329.246 723.516C329.546 723.965 329.696 724.583 329.696 725.369C329.696 726.793 329.34 727.954 328.629 728.852C326.868 731.025 324.752 732.71 322.281 733.908C319.846 735.069 317.487 735.65 315.202 735.65ZM353.805 718.123C354.292 718.123 354.666 718.366 354.928 718.853C355.191 719.34 355.322 719.958 355.322 720.707C355.322 722.504 354.779 723.572 353.693 723.909C351.445 724.695 348.974 725.145 346.277 725.257C345.566 728.403 344.161 730.931 342.064 732.841C339.967 734.714 337.589 735.65 334.93 735.65C332.682 735.65 330.754 735.107 329.143 734.021C327.57 732.935 326.372 731.493 325.548 729.695C324.724 727.897 324.312 725.95 324.312 723.853C324.312 721.006 324.855 718.478 325.941 716.269C327.027 714.022 328.525 712.28 330.435 711.044C332.345 709.771 334.461 709.134 336.783 709.134C339.63 709.134 341.914 710.127 343.637 712.112C345.397 714.059 346.427 716.475 346.727 719.359C348.487 719.246 350.584 718.872 353.018 718.235C353.318 718.16 353.58 718.123 353.805 718.123ZM335.379 729.695C336.577 729.695 337.607 729.208 338.469 728.234C339.367 727.261 339.967 725.856 340.266 724.021C339.105 723.235 338.206 722.205 337.57 720.931C336.971 719.658 336.671 718.31 336.671 716.887C336.671 716.288 336.727 715.688 336.84 715.089H336.559C335.061 715.089 333.806 715.819 332.795 717.28C331.821 718.703 331.334 720.725 331.334 723.347C331.334 725.407 331.727 726.98 332.514 728.066C333.338 729.152 334.293 729.695 335.379 729.695ZM354.489 735.65C353.066 735.65 352.054 734.901 351.455 733.403C350.893 731.905 350.612 729.508 350.612 726.212C350.612 721.343 351.305 716.718 352.691 712.336C353.028 711.25 353.571 710.464 354.32 709.977C355.107 709.453 356.193 709.191 357.578 709.191C358.327 709.191 358.852 709.284 359.151 709.471C359.451 709.659 359.601 710.014 359.601 710.539C359.601 711.138 359.32 712.486 358.758 714.584C358.384 716.082 358.084 717.392 357.859 718.516C357.635 719.639 357.447 721.025 357.298 722.673C358.533 719.452 359.919 716.831 361.455 714.808C362.99 712.786 364.488 711.344 365.949 710.483C367.447 709.621 368.814 709.191 370.05 709.191C371.248 709.191 372.147 709.509 372.746 710.146C373.383 710.745 373.701 711.644 373.701 712.842C373.701 713.816 373.495 715.651 373.083 718.347C372.709 720.632 372.409 722.804 372.184 724.864C371.96 726.886 371.847 729.152 371.847 731.661C371.847 733.084 371.548 734.114 370.948 734.751C370.387 735.35 369.45 735.65 368.14 735.65C366.904 735.65 366.005 735.331 365.443 734.695C364.881 734.058 364.6 733.103 364.6 731.83C364.6 730.332 364.863 727.86 365.387 724.414C365.836 721.418 366.061 719.508 366.061 718.684C366.061 718.085 365.855 717.786 365.443 717.786C364.956 717.786 364.263 718.422 363.365 719.696C362.503 720.931 361.604 722.579 360.668 724.639C359.769 726.699 359.039 728.871 358.477 731.156C358.065 732.916 357.578 734.114 357.017 734.751C356.492 735.35 355.65 735.65 354.489 735.65Z" fill="#18206F"/>
<path d="M607.5 252.139V54" stroke="black" stroke-width="10"/>
<circle cx="605" cy="50" r="50" fill="#6B93CA"/>
</svg>

