<svg width="966" height="927" viewBox="0 0 966 927" fill="none" xmlns="http://www.w3.org/2000/svg">
<path d="M965.861 363.002C965.861 543.148 665.762 927 476.959 927C288.156 927 0 708.56 0 528.414C0 348.268 171.716 51 360.519 51C549.322 51 965.861 182.855 965.861 363.002Z" fill="#F7F7F7"/>
<rect y="335.328" width="584" height="557.672" rx="95.7377" fill="#E1E1E1"/>
<path d="M169.935 478.934H440.394V706.311C440.394 739.358 413.604 766.147 380.558 766.147H229.771C196.724 766.147 169.935 739.358 169.935 706.311V478.934Z" fill="white"/>
<path d="M233.361 618.352C233.361 601.048 227.361 584.279 216.383 570.903C205.405 557.527 190.129 548.37 173.157 544.995C156.186 541.619 138.568 544.232 123.307 552.389C108.046 560.546 96.086 573.743 89.4639 589.73C82.8419 605.717 81.968 623.505 86.9912 640.064C92.0143 656.623 102.624 670.929 117.012 680.542C131.4 690.156 148.676 694.483 165.897 692.787C183.118 691.091 199.218 683.477 211.454 671.241L193.057 652.844C185.077 660.823 174.577 665.789 163.347 666.896C152.116 668.002 140.849 665.179 131.466 658.91C122.083 652.64 115.164 643.311 111.888 632.512C108.612 621.713 109.182 610.112 113.501 599.686C117.819 589.26 125.619 580.654 135.572 575.334C145.524 570.014 157.014 568.31 168.082 570.512C179.15 572.713 189.112 578.685 196.271 587.408C203.431 596.132 207.344 607.067 207.344 618.352H233.361Z" fill="white"/>
<circle cx="178.534" cy="149.895" r="61.8269" fill="#FBD13E"/>
<path d="M178.534 5.21997L207.448 97.9603H149.62L178.534 5.21997Z" fill="#FBD13E"/>
<path d="M291.54 65.4144L234.307 143.907L199.84 97.4746L291.54 65.4144Z" fill="#FBD13E"/>
<path d="M172.351 289.623L143.438 196.883H201.265L172.351 289.623Z" fill="#FBD13E"/>
<path d="M125.766 291.83L138.948 195.585L191.308 220.129L125.766 291.83Z" fill="#FBD13E"/>
<path d="M227.711 14.1702L214.529 110.415L162.169 85.8711L227.711 14.1702Z" fill="#FBD13E"/>
<path d="M317.997 188.413L221.263 197.323L233.338 140.771L317.997 188.413Z" fill="#FBD13E"/>
<path d="M59.9413 231.857L117.174 153.364L151.641 199.796L59.9413 231.857Z" fill="#FBD13E"/>
<circle cx="173.645" cy="150.509" r="61.8269" transform="rotate(82.6432 173.645 150.509)" fill="#FBD13E"/>
<path d="M317.129 131.984L228.855 172.534L221.45 115.183L317.129 131.984Z" fill="#FBD13E"/>
<path d="M271.901 251.767L186.725 205.056L228.362 164.927L271.901 251.767Z" fill="#FBD13E"/>
<path d="M34.2757 162.269L122.55 121.718L129.955 179.07L34.2757 162.269Z" fill="#FBD13E"/>
<path d="M77.1725 43.3872L162.348 90.0982L120.711 130.227L77.1725 43.3872Z" fill="#FBD13E"/>
<circle cx="176.779" cy="143.838" r="61.8269" transform="rotate(-115.351 176.779 143.838)" fill="#FBD13E"/>
<path d="M46.0368 205.782L117.467 139.945L142.226 192.204L46.0368 205.782Z" fill="#FBD13E"/>
<path d="M52.0495 77.8856L147.489 95.9997L120.285 147.028L52.0495 77.8856Z" fill="#FBD13E"/>
<path d="M305.699 89.5992L234.269 155.436L209.51 103.178L305.699 89.5992Z" fill="#FBD13E"/>
<path d="M301.625 215.918L206.186 197.804L233.39 146.776L301.625 215.918Z" fill="#FBD13E"/>
<circle cx="179.193" cy="148.837" r="61.8269" transform="rotate(-19.2241 179.193 148.837)" fill="#FBD13E"/>
<path d="M131.557 12.2294L189.394 90.2781L134.792 109.319L131.557 12.2294Z" fill="#FBD13E"/>
<path d="M258.081 31.8588L229.884 124.82L182.05 92.3247L258.081 31.8588Z" fill="#FBD13E"/>
<path d="M219.362 282.81L161.525 204.761L216.128 185.721L219.362 282.81Z" fill="#FBD13E"/>
<path d="M94.1996 265.277L122.396 172.316L170.23 204.811L94.1996 265.277Z" fill="#FBD13E"/>
<path d="M97.8317 28.4286L122.602 122.36L171.595 91.6409L97.8317 28.4286Z" fill="#FBD13E"/>
<path d="M34.0668 139.459L124.254 175.557L128.789 117.908L34.0668 139.459Z" fill="#FBD13E"/>
<path d="M254.154 266.099L229.383 172.167L180.391 202.886L254.154 266.099Z" fill="#FBD13E"/>
<path d="M318.704 157.441L228.516 121.344L223.982 178.993L318.704 157.441Z" fill="#FBD13E"/>
<circle cx="61.8269" cy="61.8269" r="61.8269" transform="matrix(-0.847227 0.531231 0.531231 0.847227 194.224 65.7754)" fill="white"/>
<rect x="486.03" y="20" width="335.969" height="610" rx="39.8846" fill="black"/>
<rect x="611.784" y="38.7693" width="84.9308" height="9.38461" rx="4.69231" fill="#808080"/>
<rect width="275.438" height="453.746" transform="translate(516.53 77.7153)" fill="#17255A"/>
<path d="M558.187 325.253C552.744 325.253 548.386 324.229 545.112 322.183C541.838 320.096 540.201 316.925 540.201 312.669C540.201 310.418 540.59 308.699 541.368 307.513C542.145 306.326 543.291 305.732 544.805 305.732C545.91 305.732 546.81 306.019 547.506 306.592C548.202 307.165 548.55 307.901 548.55 308.802C548.55 309.62 548.488 310.336 548.365 310.95C548.365 311.114 548.324 311.4 548.243 311.809C548.202 312.219 548.181 312.648 548.181 313.099C548.181 314.94 549.102 316.311 550.944 317.211C552.826 318.112 555.445 318.562 558.801 318.562C562.279 318.562 565 317.948 566.965 316.72C568.929 315.452 569.911 313.692 569.911 311.441C569.911 310.05 569.461 308.863 568.561 307.881C567.66 306.858 566.535 306.019 565.185 305.364C563.834 304.668 561.931 303.83 559.476 302.847C556.325 301.62 553.747 300.453 551.741 299.349C549.777 298.244 548.079 296.75 546.647 294.867C545.255 292.944 544.56 290.571 544.56 287.747C544.56 284.801 545.337 282.181 546.892 279.89C548.488 277.598 550.759 275.818 553.706 274.549C556.693 273.281 560.192 272.647 564.202 272.647C567.19 272.647 569.932 273.097 572.428 273.997C574.924 274.856 576.909 276.186 578.382 277.987C579.896 279.788 580.653 281.997 580.653 284.616C580.653 287.195 580.265 289.138 579.487 290.448C578.71 291.757 577.564 292.412 576.05 292.412C574.986 292.412 574.085 292.085 573.349 291.43C572.653 290.775 572.305 289.998 572.305 289.097C572.305 288.32 572.366 287.604 572.489 286.949C572.612 285.721 572.673 284.944 572.673 284.616C572.673 282.898 571.835 281.588 570.157 280.688C568.479 279.788 566.392 279.337 563.896 279.337C560.376 279.337 557.675 279.992 555.793 281.302C553.951 282.57 553.031 284.371 553.031 286.703C553.031 288.258 553.501 289.588 554.442 290.693C555.425 291.798 556.632 292.719 558.064 293.456C559.496 294.192 561.502 295.072 564.08 296.095C567.19 297.364 569.686 298.51 571.569 299.533C573.451 300.556 575.047 301.947 576.356 303.707C577.707 305.466 578.382 307.635 578.382 310.213C578.382 315.042 576.541 318.766 572.858 321.385C569.215 323.963 564.325 325.253 558.187 325.253ZM595.346 325.068C591.336 325.068 588.205 323.943 585.954 321.692C583.745 319.401 582.64 316.393 582.64 312.669C582.64 309.354 583.294 306.449 584.604 303.952C585.913 301.456 587.612 299.533 589.699 298.182C591.786 296.832 593.975 296.157 596.267 296.157C598.518 296.157 600.257 296.832 601.485 298.182C602.753 299.492 603.387 301.19 603.387 303.277C603.387 304.996 602.999 306.449 602.221 307.635C601.485 308.822 600.502 309.415 599.275 309.415C598.497 309.415 597.863 309.231 597.372 308.863C596.922 308.495 596.697 307.983 596.697 307.328C596.697 307.042 596.738 306.715 596.819 306.346C596.901 305.978 596.963 305.712 597.004 305.548C597.208 304.934 597.31 304.362 597.31 303.83C597.31 303.298 597.167 302.888 596.881 302.602C596.635 302.315 596.267 302.172 595.776 302.172C594.835 302.172 593.955 302.602 593.136 303.461C592.318 304.28 591.663 305.405 591.172 306.837C590.681 308.27 590.435 309.845 590.435 311.564C590.435 316.311 592.502 318.684 596.635 318.684C598.313 318.684 600.114 318.132 602.037 317.027C604.001 315.881 605.925 314.183 607.807 311.932C608.298 311.359 608.851 311.073 609.464 311.073C609.996 311.073 610.406 311.318 610.692 311.809C611.02 312.301 611.183 312.976 611.183 313.835C611.183 315.39 610.794 316.659 610.017 317.641C608.094 320.014 605.781 321.856 603.081 323.165C600.421 324.434 597.842 325.068 595.346 325.068ZM610.579 325.068C609.024 325.068 607.919 324.25 607.265 322.613C606.651 320.976 606.344 318.357 606.344 314.756C606.344 309.436 607.101 304.382 608.615 299.594C608.983 298.407 609.577 297.548 610.395 297.016C611.255 296.443 612.441 296.157 613.956 296.157C614.774 296.157 615.347 296.259 615.674 296.463C616.002 296.668 616.165 297.057 616.165 297.63C616.165 298.285 615.858 299.758 615.245 302.049C614.835 303.686 614.508 305.119 614.262 306.346C614.017 307.574 613.812 309.088 613.649 310.889C614.999 307.369 616.513 304.505 618.191 302.295C619.869 300.085 621.506 298.51 623.102 297.568C624.739 296.627 626.232 296.157 627.583 296.157C630.243 296.157 631.573 297.487 631.573 300.147C631.573 300.679 631.389 301.968 631.02 304.014C630.693 305.651 630.529 306.674 630.529 307.083C630.529 308.515 631.041 309.231 632.064 309.231C633.21 309.231 634.683 308.331 636.483 306.53C637.015 305.998 637.568 305.732 638.141 305.732C638.673 305.732 639.082 305.978 639.369 306.469C639.696 306.919 639.86 307.533 639.86 308.311C639.86 309.825 639.45 311.011 638.632 311.871C637.486 313.058 636.136 314.081 634.581 314.94C633.066 315.758 631.45 316.168 629.731 316.168C627.562 316.168 625.905 315.615 624.759 314.51C623.654 313.405 623.102 311.912 623.102 310.029C623.102 309.415 623.163 308.802 623.286 308.188C623.368 307.369 623.409 306.817 623.409 306.53C623.409 305.876 623.184 305.548 622.733 305.548C622.12 305.548 621.301 306.244 620.278 307.635C619.296 308.986 618.314 310.786 617.332 313.037C616.35 315.288 615.552 317.661 614.938 320.158C614.488 322.081 613.956 323.391 613.342 324.086C612.769 324.741 611.848 325.068 610.579 325.068ZM641.706 325.068C639.169 325.068 637.143 324.148 635.629 322.306C634.115 320.465 633.358 318.05 633.358 315.063C633.358 311.789 634.115 308.699 635.629 305.794C637.143 302.847 639.148 300.494 641.645 298.735C644.182 296.934 646.862 296.034 649.686 296.034C650.586 296.034 651.179 296.218 651.466 296.586C651.793 296.914 652.059 297.527 652.264 298.428C653.123 298.264 654.024 298.182 654.965 298.182C656.97 298.182 657.973 298.898 657.973 300.331C657.973 301.19 657.666 303.236 657.052 306.469C656.111 311.175 655.64 314.449 655.64 316.29C655.64 316.904 655.783 317.395 656.07 317.764C656.397 318.132 656.806 318.316 657.297 318.316C658.075 318.316 659.016 317.825 660.121 316.843C661.226 315.82 662.72 314.183 664.602 311.932C665.093 311.359 665.646 311.073 666.259 311.073C666.791 311.073 667.201 311.318 667.487 311.809C667.815 312.301 667.978 312.976 667.978 313.835C667.978 315.472 667.589 316.741 666.812 317.641C665.134 319.728 663.354 321.488 661.472 322.92C659.589 324.352 657.768 325.068 656.008 325.068C654.658 325.068 653.41 324.618 652.264 323.718C651.159 322.777 650.32 321.508 649.747 319.912C647.619 323.35 644.939 325.068 641.706 325.068ZM643.916 318.869C644.816 318.869 645.675 318.337 646.494 317.273C647.312 316.209 647.906 314.797 648.274 313.037L650.545 301.742C648.826 301.783 647.23 302.438 645.757 303.707C644.325 304.934 643.179 306.571 642.32 308.617C641.46 310.664 641.031 312.833 641.031 315.124C641.031 316.393 641.276 317.334 641.767 317.948C642.299 318.562 643.015 318.869 643.916 318.869ZM695.768 311.073C696.3 311.073 696.71 311.318 696.996 311.809C697.323 312.301 697.487 312.976 697.487 313.835C697.487 315.472 697.098 316.741 696.321 317.641C694.561 319.81 692.658 321.59 690.612 322.981C688.607 324.373 686.315 325.068 683.737 325.068C681.568 325.068 679.809 324.291 678.458 322.736C676.126 324.25 673.691 325.027 671.153 325.068C670.621 332.966 669.414 339.555 667.532 344.834C665.649 350.154 662.887 352.814 659.245 352.814C657.035 352.814 655.398 352.016 654.334 350.42C653.27 348.824 652.738 346.614 652.738 343.79C652.738 339.78 653.659 335.094 655.5 329.734C657.342 324.414 660.186 318.541 664.033 312.116C664.033 306.142 663.992 301.988 663.91 299.655C663.869 298.469 664.34 297.527 665.322 296.832C666.304 296.136 667.532 295.788 669.005 295.788C669.864 295.788 670.478 295.972 670.846 296.341C671.256 296.668 671.481 297.343 671.522 298.366C671.522 299.389 671.542 300.147 671.583 300.638C672.893 299.001 674.182 297.834 675.45 297.139C676.719 296.402 678.069 296.034 679.502 296.034C681.793 296.034 683.655 296.955 685.088 298.796C686.561 300.638 687.297 303.052 687.297 306.039C687.297 308.208 686.95 310.316 686.254 312.362C685.558 314.408 684.596 316.27 683.369 317.948C684.228 318.193 684.944 318.316 685.517 318.316C686.868 318.316 688.157 317.825 689.384 316.843C690.612 315.861 692.188 314.224 694.111 311.932C694.602 311.359 695.155 311.073 695.768 311.073ZM671.46 319.176C672.934 318.848 674.284 318.05 675.512 316.782C676.78 315.472 677.783 313.876 678.519 311.994C679.256 310.07 679.624 308.065 679.624 305.978C679.624 304.75 679.379 303.83 678.888 303.216C678.397 302.561 677.742 302.234 676.923 302.234C675.45 302.234 673.67 303.789 671.583 306.899C671.542 308.699 671.522 311.339 671.522 314.817C671.522 316.7 671.501 318.152 671.46 319.176ZM659.736 346.798C660.841 346.798 661.762 344.384 662.498 339.555C663.235 334.767 663.705 328.792 663.91 321.631C662.15 325.723 660.759 329.631 659.736 333.355C658.713 337.079 658.201 340.21 658.201 342.747C658.201 344.056 658.365 345.059 658.692 345.755C658.979 346.45 659.327 346.798 659.736 346.798ZM704.267 325.068C700.256 325.068 697.126 323.943 694.875 321.692C692.665 319.401 691.56 316.393 691.56 312.669C691.56 309.354 692.215 306.449 693.524 303.952C694.834 301.456 696.532 299.533 698.619 298.182C700.706 296.832 702.896 296.157 705.187 296.157C707.438 296.157 709.177 296.832 710.405 298.182C711.674 299.492 712.308 301.19 712.308 303.277C712.308 304.996 711.919 306.449 711.142 307.635C710.405 308.822 709.423 309.415 708.195 309.415C707.418 309.415 706.783 309.231 706.292 308.863C705.842 308.495 705.617 307.983 705.617 307.328C705.617 307.042 705.658 306.715 705.74 306.346C705.822 305.978 705.883 305.712 705.924 305.548C706.129 304.934 706.231 304.362 706.231 303.83C706.231 303.298 706.088 302.888 705.801 302.602C705.556 302.315 705.187 302.172 704.696 302.172C703.755 302.172 702.875 302.602 702.057 303.461C701.238 304.28 700.584 305.405 700.093 306.837C699.601 308.27 699.356 309.845 699.356 311.564C699.356 316.311 701.423 318.684 705.556 318.684C707.234 318.684 709.034 318.132 710.958 317.027C712.922 315.881 714.845 314.183 716.728 311.932C717.219 311.359 717.771 311.073 718.385 311.073C718.917 311.073 719.326 311.318 719.613 311.809C719.94 312.301 720.104 312.976 720.104 313.835C720.104 315.39 719.715 316.659 718.937 317.641C717.014 320.014 714.702 321.856 712.001 323.165C709.341 324.434 706.763 325.068 704.267 325.068ZM746.448 305.917C746.98 305.917 747.389 306.183 747.675 306.715C747.962 307.247 748.105 307.922 748.105 308.74C748.105 310.705 747.512 311.871 746.325 312.239C743.869 313.099 741.169 313.59 738.222 313.712C737.445 317.15 735.91 319.912 733.618 321.999C731.327 324.045 728.728 325.068 725.823 325.068C723.367 325.068 721.26 324.475 719.5 323.288C717.781 322.102 716.472 320.526 715.571 318.562C714.671 316.597 714.221 314.469 714.221 312.178C714.221 309.068 714.814 306.305 716.001 303.891C717.188 301.436 718.825 299.533 720.912 298.182C722.999 296.791 725.311 296.095 727.848 296.095C730.958 296.095 733.455 297.18 735.337 299.349C737.26 301.476 738.386 304.116 738.713 307.267C740.637 307.144 742.928 306.735 745.588 306.039C745.916 305.958 746.202 305.917 746.448 305.917ZM726.314 318.562C727.623 318.562 728.748 318.03 729.69 316.966C730.672 315.902 731.327 314.367 731.654 312.362C730.385 311.503 729.403 310.377 728.708 308.986C728.053 307.594 727.725 306.121 727.725 304.566C727.725 303.911 727.787 303.257 727.91 302.602H727.603C725.966 302.602 724.595 303.4 723.49 304.996C722.426 306.551 721.894 308.761 721.894 311.625C721.894 313.876 722.324 315.595 723.183 316.782C724.083 317.968 725.127 318.562 726.314 318.562ZM747.195 325.068C745.64 325.068 744.535 324.25 743.88 322.613C743.266 320.976 742.959 318.357 742.959 314.756C742.959 309.436 743.716 304.382 745.23 299.594C745.599 298.407 746.192 297.548 747.011 297.016C747.87 296.443 749.057 296.157 750.571 296.157C751.389 296.157 751.962 296.259 752.29 296.463C752.617 296.668 752.781 297.057 752.781 297.63C752.781 298.285 752.474 299.758 751.86 302.049C751.451 303.686 751.123 305.119 750.878 306.346C750.632 307.574 750.428 309.088 750.264 310.889C751.614 307.369 753.128 304.505 754.806 302.295C756.484 300.085 758.121 298.51 759.717 297.568C761.354 296.627 762.848 296.157 764.198 296.157C765.508 296.157 766.49 296.504 767.144 297.2C767.84 297.855 768.188 298.837 768.188 300.147C768.188 301.211 767.963 303.216 767.513 306.162C767.104 308.658 766.776 311.032 766.531 313.283C766.285 315.492 766.162 317.968 766.162 320.71C766.162 322.265 765.835 323.391 765.18 324.086C764.566 324.741 763.543 325.068 762.111 325.068C760.761 325.068 759.778 324.721 759.165 324.025C758.551 323.329 758.244 322.286 758.244 320.894C758.244 319.257 758.53 316.556 759.103 312.792C759.594 309.518 759.84 307.431 759.84 306.53C759.84 305.876 759.615 305.548 759.165 305.548C758.633 305.548 757.875 306.244 756.893 307.635C755.952 308.986 754.97 310.786 753.947 313.037C752.965 315.288 752.167 317.661 751.553 320.158C751.103 322.081 750.571 323.391 749.957 324.086C749.384 324.741 748.463 325.068 747.195 325.068Z" fill="#79AAF0"/>
<circle cx="654.014" cy="571.346" r="23.4615" fill="#808080"/>
<path d="M462 525.5L486 531V457.5H479L470 459.5L459 464L449 473.5L443 486V499L449 513.5L462 525.5Z" fill="#CD8862"/>
<path d="M467.5 447.5L486 450V375L477.5 375.5L473 376.5L461.5 381.5L451.5 389.5L445 400L443 407.5V418L445 424.5L450 433.5L456 440L467.5 447.5Z" fill="#CD8862"/>
<path d="M475 367L486 368V294H476.5L470 296L462.5 299.5L455.5 304L449 311L445 318.5L443 325.5V334L445 341L449 350L455.5 358L464 363.5L475 367Z" fill="#CD8862"/>
<path d="M861.291 831.5H560L559 630H697.845C695.98 628.995 692.996 592.866 701.5 569C708.568 549.164 728.558 522.279 729.5 522.5L706.5 500C683.817 473.668 677.263 456.452 678.5 420.5C677.462 420.156 684.903 385.467 689.5 383.5C694.097 381.533 695.064 381.448 698 384L820.5 502.5V313C846.501 342.251 856.168 363.356 861.291 412.5V831.5Z" fill="#BC754F"/>
</svg>
