<svg width="1829" height="2169" viewBox="0 0 1829 2169" fill="none" xmlns="http://www.w3.org/2000/svg">
<ellipse cx="914.5" cy="891.372" rx="914.5" ry="891.372" fill="#79AAF0"/>
<rect x="593" y="103" width="716" height="1300" rx="85" fill="white"/>
<rect x="861" y="143" width="181" height="20" rx="10" fill="#17255A"/>
<rect width="587" height="967" transform="translate(658 226)" fill="#17255A"/>
<path d="M746.778 754.047C735.178 754.047 725.89 751.866 718.913 747.506C711.936 743.058 708.448 736.299 708.448 727.229C708.448 722.432 709.276 718.769 710.933 716.24C712.59 713.711 715.032 712.446 718.259 712.446C720.614 712.446 722.533 713.057 724.015 714.278C725.498 715.499 726.239 717.069 726.239 718.987C726.239 720.731 726.108 722.258 725.847 723.566C725.847 723.915 725.759 724.525 725.585 725.397C725.498 726.269 725.454 727.185 725.454 728.145C725.454 732.069 727.416 734.991 731.341 736.909C735.353 738.828 740.934 739.787 748.086 739.787C755.499 739.787 761.298 738.479 765.485 735.863C769.671 733.159 771.764 729.409 771.764 724.612C771.764 721.647 770.805 719.118 768.886 717.025C766.967 714.845 764.569 713.057 761.691 711.661C758.813 710.179 754.757 708.391 749.525 706.298C742.809 703.682 737.315 701.196 733.042 698.841C728.855 696.487 725.236 693.303 722.184 689.292C719.219 685.193 717.736 680.134 717.736 674.117C717.736 667.837 719.393 662.256 722.707 657.372C726.108 652.488 730.949 648.694 737.228 645.991C743.594 643.287 751.051 641.935 759.598 641.935C765.964 641.935 771.807 642.895 777.127 644.813C782.447 646.645 786.677 649.479 789.817 653.316C793.044 657.154 794.657 661.863 794.657 667.445C794.657 672.939 793.829 677.082 792.171 679.873C790.514 682.663 788.073 684.059 784.846 684.059C782.578 684.059 780.659 683.361 779.09 681.966C777.607 680.57 776.866 678.913 776.866 676.995C776.866 675.338 776.997 673.811 777.258 672.416C777.52 669.8 777.651 668.143 777.651 667.445C777.651 663.782 775.863 660.991 772.287 659.072C768.711 657.154 764.264 656.195 758.944 656.195C751.443 656.195 745.687 657.59 741.676 660.381C737.751 663.084 735.789 666.922 735.789 671.893C735.789 675.207 736.792 678.041 738.798 680.396C740.891 682.751 743.464 684.713 746.516 686.283C749.568 687.853 753.842 689.728 759.336 691.908C765.964 694.611 771.284 697.053 775.296 699.234C779.308 701.414 782.709 704.379 785.5 708.129C788.378 711.879 789.817 716.502 789.817 721.996C789.817 732.287 785.892 740.223 778.043 745.805C770.281 751.299 759.859 754.047 746.778 754.047ZM825.97 753.654C817.423 753.654 810.751 751.256 805.954 746.459C801.245 741.575 798.89 735.165 798.89 727.229C798.89 720.165 800.286 713.973 803.076 708.653C805.867 703.333 809.487 699.234 813.934 696.356C818.382 693.478 823.048 692.039 827.932 692.039C832.729 692.039 836.435 693.478 839.051 696.356C841.755 699.146 843.107 702.766 843.107 707.214C843.107 710.877 842.278 713.973 840.621 716.502C839.051 719.031 836.958 720.295 834.342 720.295C832.685 720.295 831.333 719.903 830.287 719.118C829.327 718.333 828.848 717.243 828.848 715.848C828.848 715.237 828.935 714.539 829.109 713.755C829.284 712.97 829.414 712.403 829.502 712.054C829.938 710.746 830.156 709.525 830.156 708.391C830.156 707.257 829.851 706.385 829.24 705.775C828.717 705.164 827.932 704.859 826.885 704.859C824.879 704.859 823.004 705.775 821.26 707.606C819.516 709.35 818.121 711.749 817.074 714.801C816.027 717.853 815.504 721.211 815.504 724.874C815.504 734.991 819.908 740.049 828.717 740.049C832.292 740.049 836.13 738.872 840.229 736.517C844.415 734.075 848.514 730.456 852.526 725.659C853.572 724.438 854.75 723.828 856.058 723.828C857.192 723.828 858.064 724.351 858.674 725.397C859.372 726.444 859.721 727.883 859.721 729.714C859.721 733.028 858.892 735.732 857.235 737.825C853.136 742.883 848.209 746.808 842.453 749.599C836.784 752.302 831.29 753.654 825.97 753.654ZM858.434 753.654C855.12 753.654 852.765 751.91 851.37 748.421C850.062 744.933 849.408 739.351 849.408 731.677C849.408 720.339 851.021 709.568 854.248 699.365C855.033 696.835 856.297 695.004 858.042 693.87C859.873 692.649 862.402 692.039 865.629 692.039C867.373 692.039 868.594 692.257 869.292 692.693C869.99 693.129 870.338 693.957 870.338 695.178C870.338 696.574 869.684 699.713 868.376 704.597C867.504 708.086 866.806 711.138 866.283 713.755C865.76 716.371 865.324 719.598 864.975 723.435C867.853 715.935 871.08 709.83 874.655 705.121C878.231 700.411 881.72 697.053 885.121 695.048C888.609 693.042 891.793 692.039 894.671 692.039C900.339 692.039 903.174 694.873 903.174 700.542C903.174 701.676 902.781 704.423 901.996 708.783C901.299 712.272 900.95 714.452 900.95 715.324C900.95 718.377 902.04 719.903 904.22 719.903C906.662 719.903 909.802 717.984 913.639 714.147C914.773 713.013 915.95 712.446 917.171 712.446C918.305 712.446 919.177 712.97 919.788 714.016C920.485 714.975 920.834 716.284 920.834 717.941C920.834 721.168 919.962 723.697 918.218 725.528C915.776 728.057 912.898 730.238 909.584 732.069C906.357 733.813 902.912 734.685 899.249 734.685C894.627 734.685 891.095 733.508 888.653 731.153C886.298 728.799 885.121 725.615 885.121 721.604C885.121 720.295 885.252 718.987 885.513 717.679C885.688 715.935 885.775 714.757 885.775 714.147C885.775 712.752 885.295 712.054 884.336 712.054C883.028 712.054 881.284 713.536 879.103 716.502C877.01 719.38 874.917 723.217 872.824 728.014C870.731 732.81 869.03 737.869 867.722 743.189C866.763 747.288 865.629 750.078 864.321 751.561C863.1 752.956 861.138 753.654 858.434 753.654ZM924.769 753.654C919.362 753.654 915.045 751.692 911.818 747.767C908.591 743.843 906.978 738.697 906.978 732.331C906.978 725.354 908.591 718.769 911.818 712.577C915.045 706.298 919.318 701.283 924.638 697.533C930.045 693.696 935.758 691.777 941.775 691.777C943.694 691.777 944.959 692.17 945.569 692.954C946.267 693.652 946.834 694.96 947.27 696.879C949.101 696.53 951.02 696.356 953.026 696.356C957.299 696.356 959.436 697.882 959.436 700.934C959.436 702.766 958.782 707.126 957.474 714.016C955.468 724.046 954.465 731.023 954.465 734.947C954.465 736.255 954.77 737.302 955.381 738.087C956.078 738.872 956.95 739.264 957.997 739.264C959.654 739.264 961.66 738.218 964.015 736.124C966.369 733.944 969.553 730.456 973.564 725.659C974.611 724.438 975.788 723.828 977.096 723.828C978.23 723.828 979.102 724.351 979.713 725.397C980.41 726.444 980.759 727.883 980.759 729.714C980.759 733.203 979.931 735.906 978.274 737.825C974.698 742.273 970.904 746.023 966.893 749.075C962.881 752.128 959 753.654 955.25 753.654C952.372 753.654 949.712 752.695 947.27 750.776C944.915 748.77 943.127 746.067 941.906 742.665C937.371 749.991 931.659 753.654 924.769 753.654ZM929.479 740.441C931.397 740.441 933.229 739.308 934.973 737.04C936.717 734.773 937.982 731.764 938.767 728.014L943.607 703.943C939.944 704.03 936.543 705.426 933.403 708.129C930.351 710.746 927.909 714.234 926.077 718.595C924.246 722.955 923.33 727.578 923.33 732.462C923.33 735.165 923.853 737.171 924.9 738.479C926.034 739.787 927.56 740.441 929.479 740.441ZM1039.98 723.828C1041.12 723.828 1041.99 724.351 1042.6 725.397C1043.3 726.444 1043.65 727.883 1043.65 729.714C1043.65 733.203 1042.82 735.906 1041.16 737.825C1037.41 742.447 1033.36 746.241 1029 749.206C1024.72 752.171 1019.84 753.654 1014.34 753.654C1009.72 753.654 1005.97 751.997 1003.09 748.683C998.122 751.91 992.933 753.567 987.526 753.654C986.392 770.486 983.82 784.527 979.808 795.778C975.796 807.115 969.909 812.784 962.147 812.784C957.438 812.784 953.949 811.083 951.682 807.682C949.414 804.281 948.281 799.571 948.281 793.554C948.281 785.007 950.243 775.021 954.167 763.596C958.092 752.259 964.153 739.744 972.351 726.051C972.351 713.318 972.264 704.466 972.089 699.495C972.002 696.966 973.005 694.96 975.098 693.478C977.191 691.995 979.808 691.254 982.947 691.254C984.779 691.254 986.087 691.646 986.872 692.431C987.744 693.129 988.224 694.568 988.311 696.748C988.311 698.928 988.355 700.542 988.442 701.588C991.233 698.1 993.98 695.614 996.683 694.132C999.387 692.562 1002.26 691.777 1005.32 691.777C1010.2 691.777 1014.17 693.739 1017.22 697.664C1020.36 701.588 1021.93 706.734 1021.93 713.1C1021.93 717.723 1021.19 722.214 1019.71 726.575C1018.22 730.935 1016.18 734.903 1013.56 738.479C1015.39 739.002 1016.92 739.264 1018.14 739.264C1021.02 739.264 1023.76 738.218 1026.38 736.124C1029 734.031 1032.35 730.543 1036.45 725.659C1037.5 724.438 1038.68 723.828 1039.98 723.828ZM988.18 741.096C991.32 740.398 994.198 738.697 996.814 735.994C999.518 733.203 1001.65 729.802 1003.22 725.79C1004.79 721.691 1005.58 717.417 1005.58 712.97C1005.58 710.353 1005.06 708.391 1004.01 707.083C1002.96 705.687 1001.57 704.99 999.823 704.99C996.683 704.99 992.89 708.304 988.442 714.932C988.355 718.769 988.311 724.394 988.311 731.807C988.311 735.819 988.267 738.915 988.18 741.096ZM963.194 799.964C965.549 799.964 967.511 794.818 969.081 784.527C970.65 774.323 971.653 761.59 972.089 746.328C968.339 755.049 965.374 763.378 963.194 771.315C961.014 779.251 959.923 785.923 959.923 791.33C959.923 794.121 960.272 796.257 960.97 797.74C961.58 799.222 962.322 799.964 963.194 799.964ZM1058.1 753.654C1049.55 753.654 1042.88 751.256 1038.08 746.459C1033.37 741.575 1031.02 735.165 1031.02 727.229C1031.02 720.165 1032.41 713.973 1035.2 708.653C1037.99 703.333 1041.61 699.234 1046.06 696.356C1050.51 693.478 1055.17 692.039 1060.06 692.039C1064.85 692.039 1068.56 693.478 1071.18 696.356C1073.88 699.146 1075.23 702.766 1075.23 707.214C1075.23 710.877 1074.4 713.973 1072.75 716.502C1071.18 719.031 1069.08 720.295 1066.47 720.295C1064.81 720.295 1063.46 719.903 1062.41 719.118C1061.45 718.333 1060.97 717.243 1060.97 715.848C1060.97 715.237 1061.06 714.539 1061.23 713.755C1061.41 712.97 1061.54 712.403 1061.63 712.054C1062.06 710.746 1062.28 709.525 1062.28 708.391C1062.28 707.257 1061.98 706.385 1061.37 705.775C1060.84 705.164 1060.06 704.859 1059.01 704.859C1057.01 704.859 1055.13 705.775 1053.39 707.606C1051.64 709.35 1050.25 711.749 1049.2 714.801C1048.15 717.853 1047.63 721.211 1047.63 724.874C1047.63 734.991 1052.03 740.049 1060.84 740.049C1064.42 740.049 1068.26 738.872 1072.35 736.517C1076.54 734.075 1080.64 730.456 1084.65 725.659C1085.7 724.438 1086.88 723.828 1088.18 723.828C1089.32 723.828 1090.19 724.351 1090.8 725.397C1091.5 726.444 1091.85 727.883 1091.85 729.714C1091.85 733.028 1091.02 735.732 1089.36 737.825C1085.26 742.883 1080.33 746.808 1074.58 749.599C1068.91 752.302 1063.42 753.654 1058.1 753.654ZM1147.99 712.839C1149.12 712.839 1149.99 713.406 1150.61 714.539C1151.22 715.673 1151.52 717.112 1151.52 718.856C1151.52 723.043 1150.26 725.528 1147.73 726.313C1142.49 728.145 1136.74 729.191 1130.46 729.453C1128.8 736.779 1125.53 742.665 1120.65 747.113C1115.76 751.474 1110.23 753.654 1104.03 753.654C1098.8 753.654 1094.31 752.39 1090.56 749.86C1086.9 747.331 1084.11 743.974 1082.19 739.787C1080.27 735.601 1079.31 731.066 1079.31 726.182C1079.31 719.554 1080.57 713.667 1083.1 708.522C1085.63 703.289 1089.12 699.234 1093.57 696.356C1098.02 693.39 1102.94 691.908 1108.35 691.908C1114.98 691.908 1120.3 694.219 1124.31 698.841C1128.41 703.376 1130.81 709.001 1131.51 715.717C1135.6 715.455 1140.49 714.583 1146.16 713.1C1146.86 712.926 1147.47 712.839 1147.99 712.839ZM1105.08 739.787C1107.87 739.787 1110.27 738.654 1112.28 736.386C1114.37 734.119 1115.76 730.848 1116.46 726.575C1113.76 724.743 1111.67 722.345 1110.18 719.38C1108.79 716.414 1108.09 713.275 1108.09 709.961C1108.09 708.565 1108.22 707.17 1108.48 705.775H1107.83C1104.34 705.775 1101.42 707.475 1099.06 710.877C1096.8 714.191 1095.66 718.9 1095.66 725.005C1095.66 729.802 1096.58 733.464 1098.41 735.994C1100.33 738.523 1102.55 739.787 1105.08 739.787ZM1149.58 753.654C1146.27 753.654 1143.91 751.91 1142.52 748.421C1141.21 744.933 1140.55 739.351 1140.55 731.677C1140.55 720.339 1142.17 709.568 1145.4 699.365C1146.18 696.835 1147.44 695.004 1149.19 693.87C1151.02 692.649 1153.55 692.039 1156.78 692.039C1158.52 692.039 1159.74 692.257 1160.44 692.693C1161.14 693.129 1161.49 693.957 1161.49 695.178C1161.49 696.574 1160.83 699.713 1159.52 704.597C1158.65 708.086 1157.95 711.138 1157.43 713.755C1156.91 716.371 1156.47 719.598 1156.12 723.435C1159 715.935 1162.23 709.83 1165.8 705.121C1169.38 700.411 1172.87 697.053 1176.27 695.048C1179.76 693.042 1182.94 692.039 1185.82 692.039C1188.61 692.039 1190.7 692.78 1192.1 694.263C1193.58 695.658 1194.32 697.751 1194.32 700.542C1194.32 702.809 1193.84 707.083 1192.88 713.362C1192.01 718.682 1191.31 723.74 1190.79 728.537C1190.27 733.246 1190 738.523 1190 744.366C1190 747.68 1189.31 750.078 1187.91 751.561C1186.6 752.956 1184.42 753.654 1181.37 753.654C1178.49 753.654 1176.4 752.913 1175.09 751.43C1173.78 749.948 1173.13 747.724 1173.13 744.758C1173.13 741.27 1173.74 735.514 1174.96 727.49C1176.01 720.513 1176.53 716.066 1176.53 714.147C1176.53 712.752 1176.05 712.054 1175.09 712.054C1173.96 712.054 1172.34 713.536 1170.25 716.502C1168.24 719.38 1166.15 723.217 1163.97 728.014C1161.88 732.81 1160.18 737.869 1158.87 743.189C1157.91 747.288 1156.78 750.078 1155.47 751.561C1154.25 752.956 1152.28 753.654 1149.58 753.654Z" fill="#79AAF0"/>
<circle cx="951" cy="1278" r="50" fill="#808080"/>
<path d="M967 1561C982.285 1501.73 980.63 1463.33 978 1395H1239.5C1239.5 1395 1253.48 1394.44 1262 1392C1269.57 1389.84 1279 1384 1279 1384C1235 1485.29 1195.08 1526.39 1079.5 1561C1035.57 1567.68 1010.93 1566.37 967 1561Z" fill="#BC754F"/>
<path d="M699.282 1539L657.282 2168.5H1175.28V1670V1520.5C1093.69 1562.46 1078.16 1560.14 1045.78 1560H968.282C982.854 1495.32 986.917 1458.63 978.282 1391.5C958.978 1286.19 929.639 1236.09 838.782 1165.5C786.813 1140.28 757.483 1122.08 705.282 1083.5C688.93 1068.98 682.558 1058.72 676.782 1036V896C674.532 853.306 666.261 834.426 641.782 805.5C610.464 768.491 584.983 757.939 529.282 753C525.14 754.631 523.176 756.115 520.782 760.5V1204C517.773 1204.21 521.915 1341.36 560.783 1406.5C599.65 1471.64 596.072 1464.12 628.782 1492.5C653.696 1514.11 699.282 1539 699.282 1539Z" fill="#CD8862"/>
</svg>
